<svg xmlns="http://www.w3.org/2000/svg" xmlns:xlink="http://www.w3.org/1999/xlink" width="2000" zoomAndPan="magnify" viewBox="0 0 1500 1499.999933" height="2000" preserveAspectRatio="xMidYMid meet" version="1.0"><defs><g/><clipPath id="cd994ded10"><path d="M 288.90625 287.992188 L 1260.90625 287.992188 L 1260.90625 1259.992188 L 288.90625 1259.992188 Z M 288.90625 287.992188 " clip-rule="nonzero"/></clipPath><clipPath id="d247e167a2"><path d="M 325.207031 324.292969 L 1260.457031 324.292969 L 1260.457031 1259.542969 L 325.207031 1259.542969 Z M 325.207031 324.292969 " clip-rule="nonzero"/></clipPath><clipPath id="9f3f975b31"><path d="M 884 883.546875 L 1207.929688 883.546875 L 1207.929688 1104.796875 L 884 1104.796875 Z M 884 883.546875 " clip-rule="nonzero"/></clipPath><clipPath id="641913defe"><path d="M 1020 1016 L 1195 1016 L 1195 1231 L 1020 1231 Z M 1020 1016 " clip-rule="nonzero"/></clipPath><clipPath id="99db51bc8d"><path d="M 1022.949219 1012.613281 L 1216.9375 1070.703125 L 1158.847656 1264.691406 L 964.855469 1206.601562 Z M 1022.949219 1012.613281 " clip-rule="nonzero"/></clipPath><clipPath id="6867b2642a"><path d="M 1022.949219 1012.613281 L 1216.9375 1070.703125 L 1158.847656 1264.691406 L 964.855469 1206.601562 Z M 1022.949219 1012.613281 " clip-rule="nonzero"/></clipPath><clipPath id="dfbf4c1f01"><path d="M 1022.949219 1012.613281 L 1216.9375 1070.703125 L 1158.847656 1264.691406 L 964.855469 1206.601562 Z M 1022.949219 1012.613281 " clip-rule="nonzero"/></clipPath><clipPath id="636a92f249"><rect x="0" width="514" y="0" height="726"/></clipPath></defs><g clip-path="url(#cd994ded10)"><path fill="#38bdf8" d="M 1260.691406 1259.777344 L 554.675781 1259.777344 C 407.90625 1259.777344 288.90625 1140.777344 288.90625 994.007812 L 288.90625 287.992188 L 994.921875 287.992188 C 1141.71875 287.992188 1260.691406 406.992188 1260.691406 553.761719 Z M 1260.691406 1259.777344 " fill-opacity="1" fill-rule="nonzero"/></g><g clip-path="url(#d247e167a2)"><path fill="#ffffff" d="M 1260.695312 1259.78125 L 581.050781 1259.78125 C 439.761719 1259.78125 325.207031 1145.226562 325.207031 1003.941406 L 325.207031 324.292969 L 1004.855469 324.292969 C 1146.171875 324.292969 1260.695312 438.847656 1260.695312 580.136719 Z M 1260.695312 1259.78125 " fill-opacity="1" fill-rule="nonzero"/></g><g clip-path="url(#9f3f975b31)"><path fill="#000000" d="M 1207.890625 1024.578125 L 1207.890625 1066.167969 C 1207.890625 1070.917969 1204.050781 1074.773438 1199.304688 1074.792969 C 1199.277344 1074.792969 1199.25 1074.792969 1199.226562 1074.796875 L 1171.085938 1076.761719 C 1170.476562 1076.804688 1169.96875 1077.230469 1169.8125 1077.820312 C 1167.46875 1086.785156 1164.183594 1095.363281 1160.050781 1103.445312 C 1160.050781 1103.453125 1160.046875 1103.457031 1160.042969 1103.460938 C 1159.644531 1104.234375 1158.644531 1104.457031 1157.953125 1103.929688 L 1132.082031 1084.234375 C 1131.566406 1083.84375 1131.382812 1083.144531 1131.640625 1082.550781 C 1133.105469 1079.1875 1134.375 1075.722656 1135.441406 1072.171875 C 1136.804688 1067.621094 1137.828125 1062.925781 1138.484375 1058.117188 C 1138.878906 1055.234375 1139.140625 1052.3125 1139.265625 1049.351562 C 1139.320312 1048.035156 1139.347656 1046.707031 1139.347656 1045.371094 C 1139.347656 1042.816406 1139.242188 1040.28125 1139.042969 1037.773438 C 1136.839844 1010.460938 1122.875 986.46875 1102.214844 970.875 C 1086.59375 959.085938 1067.148438 952.09375 1046.070312 952.09375 C 994.550781 952.09375 952.789062 993.855469 952.789062 1045.371094 C 952.789062 1058.589844 955.539062 1071.160156 960.492188 1082.550781 C 960.75 1083.148438 960.566406 1083.84375 960.050781 1084.234375 L 957.625 1086.085938 L 934.199219 1103.921875 C 933.5 1104.449219 932.492188 1104.222656 932.085938 1103.445312 C 932.039062 1103.351562 931.988281 1103.257812 931.941406 1103.164062 C 931.875 1103.039062 931.8125 1102.914062 931.75 1102.785156 C 929.707031 1098.730469 927.875 1094.550781 926.269531 1090.265625 C 924.75 1086.210938 923.433594 1082.058594 922.324219 1077.820312 C 922.171875 1077.230469 921.660156 1076.804688 921.050781 1076.761719 L 892.910156 1074.796875 C 892.886719 1074.792969 892.863281 1074.792969 892.832031 1074.792969 C 888.089844 1074.773438 884.25 1070.917969 884.25 1066.167969 L 884.25 1024.578125 C 884.25 1019.828125 888.089844 1015.972656 892.832031 1015.957031 C 892.863281 1015.957031 892.886719 1015.953125 892.910156 1015.953125 L 921.050781 1013.984375 C 921.660156 1013.941406 922.171875 1013.519531 922.324219 1012.925781 C 925.304688 1001.53125 929.816406 990.75 935.632812 980.824219 C 935.9375 980.296875 935.878906 979.636719 935.480469 979.175781 L 916.964844 957.878906 C 916.945312 957.859375 916.933594 957.84375 916.914062 957.824219 C 913.570312 954.453125 913.582031 949.011719 916.941406 945.65625 L 934.863281 927.730469 L 946.351562 916.246094 C 949.707031 912.886719 955.152344 912.875 958.519531 916.21875 C 958.535156 916.234375 958.554688 916.253906 958.574219 916.269531 L 979.871094 934.785156 C 980.328125 935.183594 980.992188 935.242188 981.519531 934.9375 C 991.445312 929.121094 1002.222656 924.609375 1013.621094 921.628906 C 1014.210938 921.472656 1014.640625 920.964844 1014.679688 920.355469 L 1016.644531 892.214844 C 1016.648438 892.191406 1016.648438 892.164062 1016.648438 892.140625 C 1016.667969 887.394531 1020.519531 883.550781 1025.273438 883.550781 L 1066.867188 883.550781 C 1071.617188 883.550781 1075.46875 887.394531 1075.488281 892.140625 C 1075.488281 892.164062 1075.488281 892.191406 1075.492188 892.214844 L 1077.457031 920.355469 C 1077.5 920.964844 1077.925781 921.472656 1078.515625 921.628906 C 1089.914062 924.609375 1100.691406 929.121094 1110.621094 934.9375 C 1111.144531 935.242188 1111.804688 935.183594 1112.265625 934.785156 L 1115.859375 931.664062 L 1133.5625 916.269531 C 1133.585938 916.253906 1133.601562 916.234375 1133.621094 916.21875 C 1136.988281 912.875 1142.433594 912.886719 1145.789062 916.246094 L 1175.199219 945.65625 C 1178.554688 949.011719 1178.566406 954.453125 1175.226562 957.824219 C 1175.207031 957.84375 1175.191406 957.859375 1175.175781 957.878906 L 1156.65625 979.175781 C 1156.257812 979.636719 1156.199219 980.296875 1156.503906 980.824219 C 1161.527344 989.398438 1165.582031 998.605469 1168.511719 1008.308594 C 1168.972656 1009.835938 1169.410156 1011.375 1169.8125 1012.925781 C 1169.96875 1013.519531 1170.480469 1013.941406 1171.085938 1013.984375 L 1175.253906 1014.277344 L 1178.738281 1014.519531 L 1189.164062 1015.25 L 1199.226562 1015.953125 C 1199.25 1015.953125 1199.277344 1015.957031 1199.304688 1015.957031 C 1204.050781 1015.972656 1207.890625 1019.828125 1207.890625 1024.578125 " fill-opacity="1" fill-rule="nonzero"/></g><g clip-path="url(#641913defe)"><g clip-path="url(#99db51bc8d)"><g clip-path="url(#6867b2642a)"><g clip-path="url(#dfbf4c1f01)"><path fill="#000000" d="M 1185.566406 1155.027344 L 1105.605469 1165.949219 L 1052.550781 1226.734375 C 1051.910156 1227.46875 1051.175781 1228.09375 1050.351562 1228.613281 C 1049.527344 1229.128906 1048.644531 1229.515625 1047.707031 1229.769531 C 1046.769531 1230.027344 1045.8125 1230.140625 1044.839844 1230.117188 C 1043.867188 1230.089844 1042.917969 1229.921875 1041.992188 1229.617188 C 1041.070312 1229.308594 1040.210938 1228.875 1039.414062 1228.316406 C 1038.621094 1227.753906 1037.921875 1227.089844 1037.324219 1226.324219 C 1036.722656 1225.554688 1036.246094 1224.71875 1035.894531 1223.8125 C 1035.542969 1222.902344 1035.332031 1221.964844 1035.257812 1220.992188 L 1020.441406 1026.984375 C 1020.382812 1026.035156 1020.460938 1025.101562 1020.671875 1024.175781 C 1020.882812 1023.25 1021.21875 1022.371094 1021.679688 1021.542969 C 1022.140625 1020.714844 1022.710938 1019.964844 1023.386719 1019.300781 C 1024.0625 1018.632812 1024.816406 1018.074219 1025.652344 1017.625 C 1026.488281 1017.175781 1027.371094 1016.851562 1028.296875 1016.652344 C 1029.226562 1016.457031 1030.164062 1016.390625 1031.109375 1016.460938 C 1032.058594 1016.53125 1032.972656 1016.734375 1033.863281 1017.066406 C 1034.75 1017.402344 1035.574219 1017.851562 1036.335938 1018.421875 L 1190.273438 1137.429688 C 1191.027344 1138.03125 1191.679688 1138.730469 1192.230469 1139.523438 C 1192.785156 1140.316406 1193.210938 1141.171875 1193.511719 1142.089844 C 1193.816406 1143.007812 1193.980469 1143.949219 1194.007812 1144.917969 C 1194.035156 1145.882812 1193.921875 1146.832031 1193.675781 1147.765625 C 1193.425781 1148.699219 1193.046875 1149.578125 1192.539062 1150.402344 C 1192.035156 1151.226562 1191.421875 1151.960938 1190.703125 1152.605469 C 1189.980469 1153.25 1189.183594 1153.777344 1188.308594 1154.191406 C 1187.4375 1154.601562 1186.519531 1154.878906 1185.566406 1155.027344 Z M 1185.566406 1155.027344 " fill-opacity="1" fill-rule="nonzero"/></g></g></g></g><g transform="matrix(1, 0, 0, 1, 360, 272)"><g clip-path="url(#636a92f249)"><g fill="#000000" fill-opacity="1"><g transform="translate(0.0936058, 568.563674)"><g><path d="M 153.6875 -300.328125 L 153.6875 -317.4375 C 153.6875 -328.03125 150.9375 -337.09375 145.4375 -344.625 C 139.9375 -352.164062 131.6875 -355.9375 120.6875 -355.9375 C 115.59375 -355.9375 110.5 -354.660156 105.40625 -352.109375 C 100.3125 -349.566406 96.082031 -345.492188 92.71875 -339.890625 C 89.363281 -334.296875 87.6875 -326.8125 87.6875 -317.4375 C 87.6875 -307.863281 89.566406 -299.664062 93.328125 -292.84375 C 97.097656 -286.019531 102.394531 -279.65625 109.21875 -273.75 C 116.050781 -267.84375 123.945312 -261.328125 132.90625 -254.203125 C 147.164062 -243.203125 160.503906 -232.503906 172.921875 -222.109375 C 185.347656 -211.722656 196.242188 -200.722656 205.609375 -189.109375 C 214.984375 -177.503906 222.316406 -164.472656 227.609375 -150.015625 C 232.910156 -135.554688 235.5625 -118.648438 235.5625 -99.296875 C 235.5625 -85.035156 232.863281 -71.539062 227.46875 -58.8125 C 222.070312 -46.082031 214.429688 -34.773438 204.546875 -24.890625 C 194.671875 -15.015625 182.804688 -7.273438 168.953125 -1.671875 C 155.109375 3.921875 139.734375 6.71875 122.828125 6.71875 C 104.492188 6.71875 88.398438 3.71875 74.546875 -2.28125 C 60.691406 -8.289062 49.128906 -16.390625 39.859375 -26.578125 C 30.597656 -36.765625 23.675781 -48.476562 19.09375 -61.71875 C 14.507812 -74.957031 12.21875 -88.707031 12.21875 -102.96875 L 12.21875 -119.15625 C 12.21875 -124.445312 12.878906 -128.210938 14.203125 -130.453125 C 15.523438 -132.703125 18.328125 -133.828125 22.609375 -133.828125 L 78.21875 -133.828125 C 82.488281 -133.828125 85.285156 -132.910156 86.609375 -131.078125 C 87.941406 -129.242188 88.609375 -125.984375 88.609375 -121.296875 L 88.609375 -107.546875 C 88.609375 -97.359375 90.441406 -89.3125 94.109375 -83.40625 C 97.773438 -77.5 102.304688 -73.320312 107.703125 -70.875 C 113.097656 -68.4375 118.34375 -67.21875 123.4375 -67.21875 C 133.007812 -67.21875 141.207031 -70.472656 148.03125 -76.984375 C 154.851562 -83.503906 158.265625 -92.367188 158.265625 -103.578125 C 158.265625 -113.554688 156.429688 -122.160156 152.765625 -129.390625 C 149.097656 -136.617188 143.34375 -143.898438 135.5 -151.234375 C 127.65625 -158.566406 117.421875 -167.328125 104.796875 -177.515625 C 88.910156 -190.546875 75.109375 -202.050781 63.390625 -212.03125 C 51.679688 -222.007812 42.054688 -231.9375 34.515625 -241.8125 C 26.984375 -251.695312 21.382812 -262.75 17.71875 -274.96875 C 14.050781 -287.195312 12.21875 -302.066406 12.21875 -319.578125 C 12.21875 -335.460938 14.5625 -349.460938 19.25 -361.578125 C 23.9375 -373.703125 30.195312 -384.039062 38.03125 -392.59375 C 45.875 -401.15625 54.582031 -408.132812 64.15625 -413.53125 C 73.726562 -418.925781 83.398438 -422.894531 93.171875 -425.4375 C 102.953125 -427.988281 112.125 -429.265625 120.6875 -429.265625 C 141.863281 -429.265625 160.597656 -424.679688 176.890625 -415.515625 C 193.191406 -406.347656 205.972656 -393.410156 215.234375 -376.703125 C 224.503906 -360.003906 229.140625 -340.351562 229.140625 -317.75 L 229.140625 -300.328125 C 229.140625 -296.054688 228.375 -293.050781 226.84375 -291.3125 C 225.320312 -289.582031 222.117188 -288.71875 217.234375 -288.71875 L 162.546875 -288.71875 C 158.671875 -288.71875 156.222656 -289.582031 155.203125 -291.3125 C 154.191406 -293.050781 153.6875 -296.054688 153.6875 -300.328125 Z M 153.6875 -300.328125 "/></g></g></g><g fill="#000000" fill-opacity="1"><g transform="translate(244.503735, 568.563674)"><g><path d="M 100.828125 -318.96875 L 100.828125 -172.015625 L 165.90625 -172.015625 L 165.90625 -318.96875 C 165.90625 -328.539062 163.050781 -337.046875 157.34375 -344.484375 C 151.644531 -351.921875 143.703125 -355.640625 133.515625 -355.640625 C 123.128906 -355.640625 115.082031 -351.921875 109.375 -344.484375 C 103.675781 -337.046875 100.828125 -328.539062 100.828125 -318.96875 Z M 247.484375 -323.546875 L 247.484375 -12.21875 C 247.484375 -9.164062 246.71875 -6.363281 245.1875 -3.8125 C 243.65625 -1.269531 241.160156 0 237.703125 0 L 175.671875 0 C 172.617188 0 170.226562 -1.21875 168.5 -3.65625 C 166.769531 -6.101562 165.90625 -8.957031 165.90625 -12.21875 L 165.90625 -100.828125 L 100.828125 -100.828125 L 100.828125 -11.921875 C 100.828125 -8.660156 100.210938 -5.859375 98.984375 -3.515625 C 97.765625 -1.171875 95.320312 0 91.65625 0 L 27.1875 0 C 24.945312 0 23.0625 -1.171875 21.53125 -3.515625 C 20.007812 -5.859375 19.25 -8.660156 19.25 -11.921875 L 19.25 -323.546875 C 19.25 -338.210938 22.300781 -351.960938 28.40625 -364.796875 C 34.519531 -377.628906 42.820312 -388.882812 53.3125 -398.5625 C 63.800781 -408.238281 75.921875 -415.828125 89.671875 -421.328125 C 103.421875 -426.828125 117.929688 -429.578125 133.203125 -429.578125 C 148.484375 -429.578125 163 -426.828125 176.75 -421.328125 C 190.5 -415.828125 202.664062 -408.238281 213.25 -398.5625 C 223.84375 -388.882812 232.195312 -377.628906 238.3125 -364.796875 C 244.425781 -351.960938 247.484375 -338.210938 247.484375 -323.546875 Z M 247.484375 -323.546875 "/></g></g></g></g></g><g fill="#000000" fill-opacity="1"><g transform="translate(881.971829, 832.748236)"><g><path d="M 64.4375 -87.328125 L 64.4375 -79.28125 C 64.4375 -78.007812 64.269531 -77.082031 63.9375 -76.5 C 63.601562 -75.925781 62.882812 -75.640625 61.78125 -75.640625 L 46.359375 -75.640625 C 45.359375 -75.640625 44.675781 -75.898438 44.3125 -76.421875 C 43.957031 -76.941406 43.78125 -77.785156 43.78125 -78.953125 L 43.78125 -86.65625 C 43.78125 -88.320312 43.445312 -89.914062 42.78125 -91.4375 C 42.125 -92.957031 41.160156 -94.195312 39.890625 -95.15625 C 38.617188 -96.125 37.070312 -96.609375 35.25 -96.609375 C 32.539062 -96.609375 30.351562 -95.628906 28.6875 -93.671875 C 27.03125 -91.710938 26.203125 -89.429688 26.203125 -86.828125 L 26.203125 -28.203125 C 26.203125 -26.484375 26.5625 -24.847656 27.28125 -23.296875 C 28 -21.753906 29.035156 -20.507812 30.390625 -19.5625 C 31.742188 -18.625 33.363281 -18.15625 35.25 -18.15625 C 38.289062 -18.15625 40.539062 -19.175781 42 -21.21875 C 43.46875 -23.269531 44.203125 -25.597656 44.203125 -28.203125 L 44.203125 -38.0625 C 44.203125 -39.332031 44.378906 -40.1875 44.734375 -40.625 C 45.097656 -41.070312 45.75 -41.296875 46.6875 -41.296875 L 62.203125 -41.296875 C 63.140625 -41.296875 63.828125 -41.101562 64.265625 -40.71875 C 64.710938 -40.332031 64.9375 -39.503906 64.9375 -38.234375 L 64.9375 -26.953125 C 64.9375 -20.984375 63.59375 -15.84375 60.90625 -11.53125 C 58.226562 -7.21875 54.632812 -3.910156 50.125 -1.609375 C 45.625 0.679688 40.609375 1.828125 35.078125 1.828125 C 30.929688 1.828125 26.992188 1.175781 23.265625 -0.125 C 19.535156 -1.425781 16.234375 -3.316406 13.359375 -5.796875 C 10.484375 -8.285156 8.226562 -11.3125 6.59375 -14.875 C 4.957031 -18.445312 4.140625 -22.472656 4.140625 -26.953125 L 4.140625 -87.734375 C 4.140625 -91.828125 4.898438 -95.628906 6.421875 -99.140625 C 7.941406 -102.648438 10.082031 -105.703125 12.84375 -108.296875 C 15.613281 -110.898438 18.878906 -112.921875 22.640625 -114.359375 C 26.398438 -115.796875 30.546875 -116.515625 35.078125 -116.515625 C 40.109375 -116.515625 44.472656 -115.6875 48.171875 -114.03125 C 51.878906 -112.375 54.9375 -110.160156 57.34375 -107.390625 C 59.75 -104.628906 61.53125 -101.503906 62.6875 -98.015625 C 63.851562 -94.535156 64.4375 -90.972656 64.4375 -87.328125 Z M 64.4375 -87.328125 "/></g></g></g><g fill="#000000" fill-opacity="1"><g transform="translate(950.052336, 832.748236)"><g><path d="M 56.0625 0 L 8.796875 0 C 6.910156 0 5.96875 -1.050781 5.96875 -3.15625 L 5.96875 -111.546875 C 5.96875 -113.703125 6.878906 -114.78125 8.703125 -114.78125 L 25.296875 -114.78125 C 27.117188 -114.78125 28.03125 -113.703125 28.03125 -111.546875 L 28.03125 -19.984375 L 56.0625 -19.984375 C 57.613281 -19.984375 58.390625 -19.046875 58.390625 -17.171875 L 58.390625 -2.984375 C 58.390625 -0.992188 57.613281 0 56.0625 0 Z M 56.0625 0 "/></g></g></g><g fill="#000000" fill-opacity="1"><g transform="translate(1010.255075, 832.748236)"><g><path d="M 28.03125 -111.546875 L 28.03125 -3.15625 C 28.03125 -1.050781 27.117188 0 25.296875 0 L 8.703125 0 C 6.878906 0 5.96875 -1.050781 5.96875 -3.15625 L 5.96875 -111.546875 C 5.96875 -113.703125 6.878906 -114.78125 8.703125 -114.78125 L 25.296875 -114.78125 C 27.117188 -114.78125 28.03125 -113.703125 28.03125 -111.546875 Z M 28.03125 -111.546875 "/></g></g></g><g fill="#000000" fill-opacity="1"><g transform="translate(1044.33679, 832.748236)"><g><path d="M 64.4375 -87.328125 L 64.4375 -79.28125 C 64.4375 -78.007812 64.269531 -77.082031 63.9375 -76.5 C 63.601562 -75.925781 62.882812 -75.640625 61.78125 -75.640625 L 46.359375 -75.640625 C 45.359375 -75.640625 44.675781 -75.898438 44.3125 -76.421875 C 43.957031 -76.941406 43.78125 -77.785156 43.78125 -78.953125 L 43.78125 -86.65625 C 43.78125 -88.320312 43.445312 -89.914062 42.78125 -91.4375 C 42.125 -92.957031 41.160156 -94.195312 39.890625 -95.15625 C 38.617188 -96.125 37.070312 -96.609375 35.25 -96.609375 C 32.539062 -96.609375 30.351562 -95.628906 28.6875 -93.671875 C 27.03125 -91.710938 26.203125 -89.429688 26.203125 -86.828125 L 26.203125 -28.203125 C 26.203125 -26.484375 26.5625 -24.847656 27.28125 -23.296875 C 28 -21.753906 29.035156 -20.507812 30.390625 -19.5625 C 31.742188 -18.625 33.363281 -18.15625 35.25 -18.15625 C 38.289062 -18.15625 40.539062 -19.175781 42 -21.21875 C 43.46875 -23.269531 44.203125 -25.597656 44.203125 -28.203125 L 44.203125 -38.0625 C 44.203125 -39.332031 44.378906 -40.1875 44.734375 -40.625 C 45.097656 -41.070312 45.75 -41.296875 46.6875 -41.296875 L 62.203125 -41.296875 C 63.140625 -41.296875 63.828125 -41.101562 64.265625 -40.71875 C 64.710938 -40.332031 64.9375 -39.503906 64.9375 -38.234375 L 64.9375 -26.953125 C 64.9375 -20.984375 63.59375 -15.84375 60.90625 -11.53125 C 58.226562 -7.21875 54.632812 -3.910156 50.125 -1.609375 C 45.625 0.679688 40.609375 1.828125 35.078125 1.828125 C 30.929688 1.828125 26.992188 1.175781 23.265625 -0.125 C 19.535156 -1.425781 16.234375 -3.316406 13.359375 -5.796875 C 10.484375 -8.285156 8.226562 -11.3125 6.59375 -14.875 C 4.957031 -18.445312 4.140625 -22.472656 4.140625 -26.953125 L 4.140625 -87.734375 C 4.140625 -91.828125 4.898438 -95.628906 6.421875 -99.140625 C 7.941406 -102.648438 10.082031 -105.703125 12.84375 -108.296875 C 15.613281 -110.898438 18.878906 -112.921875 22.640625 -114.359375 C 26.398438 -115.796875 30.546875 -116.515625 35.078125 -116.515625 C 40.109375 -116.515625 44.472656 -115.6875 48.171875 -114.03125 C 51.878906 -112.375 54.9375 -110.160156 57.34375 -107.390625 C 59.75 -104.628906 61.53125 -101.503906 62.6875 -98.015625 C 63.851562 -94.535156 64.4375 -90.972656 64.4375 -87.328125 Z M 64.4375 -87.328125 "/></g></g></g><g fill="#000000" fill-opacity="1"><g transform="translate(1112.417297, 832.748236)"><g><path d="M 53.90625 -57.640625 C 58.65625 -53.984375 62.359375 -49.363281 65.015625 -43.78125 C 67.671875 -38.195312 69 -31.726562 69 -24.375 L 69 -3.484375 C 69 -2.765625 68.773438 -2.003906 68.328125 -1.203125 C 67.890625 -0.398438 67.117188 0 66.015625 0 L 50.59375 0 C 49.644531 0 48.785156 -0.316406 48.015625 -0.953125 C 47.242188 -1.585938 46.859375 -2.515625 46.859375 -3.734375 L 46.859375 -21.8125 C 46.859375 -26.625 46.300781 -30.851562 45.1875 -34.5 C 44.082031 -38.144531 42.160156 -41.03125 39.421875 -43.15625 C 36.691406 -45.289062 32.894531 -46.46875 28.03125 -46.6875 L 28.03125 -3.15625 C 28.03125 -1.050781 27.144531 0 25.375 0 L 8.796875 0 C 6.910156 0 5.96875 -1.050781 5.96875 -3.15625 L 5.96875 -111.546875 C 5.96875 -113.703125 6.910156 -114.78125 8.796875 -114.78125 L 25.296875 -114.78125 C 27.117188 -114.78125 28.03125 -113.703125 28.03125 -111.546875 L 28.03125 -67.5 C 32.625 -67.894531 36.191406 -69.171875 38.734375 -71.328125 C 41.273438 -73.484375 43.066406 -76.367188 44.109375 -79.984375 C 45.160156 -83.609375 45.6875 -87.742188 45.6875 -92.390625 L 45.6875 -110.96875 C 45.6875 -112.238281 46.085938 -113.191406 46.890625 -113.828125 C 47.691406 -114.460938 48.566406 -114.78125 49.515625 -114.78125 L 64.859375 -114.78125 C 65.960938 -114.78125 66.734375 -114.378906 67.171875 -113.578125 C 67.617188 -112.773438 67.84375 -111.988281 67.84375 -111.21875 L 67.84375 -89.890625 C 67.84375 -82.867188 66.625 -76.648438 64.1875 -71.234375 C 61.757812 -65.816406 58.332031 -61.285156 53.90625 -57.640625 Z M 53.90625 -57.640625 "/></g></g></g></svg>